<?xml version="1.0" standalone="no"?>
<!DOCTYPE svg PUBLIC "-//W3C//DTD SVG 20010904//EN"
 "http://www.w3.org/TR/2001/REC-SVG-20010904/DTD/svg10.dtd">
<svg version="1.0" xmlns="http://www.w3.org/2000/svg"
 width="1080.000000pt" height="1080.000000pt" viewBox="0 0 1080.000000 1080.000000"
 preserveAspectRatio="xMidYMid meet">
<metadata>
Created by potrace 1.11, written by Peter Selinger 2001-2013
</metadata>
<g transform="translate(0.000000,1080.000000) scale(0.100000,-0.100000)"
fill="#000000" stroke="none">
<path d="M4940 10785 c-775 -69 -1540 -307 -2200 -683 -240 -137 -605 -386
-596 -407 2 -7 322 -429 711 -939 l707 -927 46 35 c405 296 902 489 1432 558
140 17 581 17 720 -1 809 -104 1507 -486 2014 -1104 72 -88 213 -288 261 -371
9 -16 131 52 1020 563 555 320 1011 585 1013 591 4 12 -42 90 -164 275 -460
702 -1103 1305 -1836 1723 -69 40 -213 115 -320 166 -616 299 -1249 469 -1951
526 -172 14 -677 11 -857 -5z"/>
<path d="M1066 8616 c-541 -731 -894 -1598 -1011 -2486 -61 -456 -61 -995 0
-1450 125 -943 511 -1857 1099 -2605 262 -333 612 -684 931 -931 774 -601
1685 -980 2640 -1098 427 -53 923 -53 1350 0 811 100 1608 394 2285 843 145
96 400 282 400 291 0 3 -330 420 -734 926 l-733 921 -59 -45 c-425 -323 -979
-537 -1533 -592 -134 -13 -470 -13 -602 0 -908 92 -1719 573 -2231 1325 -267
392 -428 821 -500 1325 -20 144 -17 623 5 768 82 539 261 980 569 1399 l38 52
-647 498 c-357 273 -775 595 -931 715 l-282 218 -54 -74z"/>
<path d="M5408 7255 c-2 -2 -33 -6 -68 -9 -345 -29 -725 -169 -935 -345 -40
-34 -205 -200 -230 -231 -133 -170 -231 -376 -321 -677 -2 -10 -39 -13 -138
-13 l-134 0 -10 -32 c-27 -93 -112 -406 -112 -413 0 -3 75 -5 168 -5 l167 0 0
-140 0 -140 -137 0 -136 0 -11 -32 c-5 -18 -22 -78 -36 -133 -15 -55 -35 -131
-46 -170 -11 -38 -22 -80 -25 -92 l-4 -23 227 -2 227 -3 8 -41 c12 -71 67
-225 117 -329 62 -126 127 -225 223 -340 181 -216 343 -339 578 -438 72 -31
241 -80 320 -93 14 -2 34 -6 46 -9 12 -3 39 -7 60 -10 21 -3 48 -8 59 -10 91
-19 523 -27 660 -12 227 25 504 120 658 224 l37 26 0 465 0 465 -32 -27 c-47
-37 -241 -150 -318 -184 -209 -93 -423 -139 -650 -140 -256 0 -446 92 -557
271 -39 61 -83 156 -83 176 0 8 115 11 370 11 l369 0 10 38 c21 81 101 402
101 407 0 3 -207 5 -460 5 l-461 0 2 140 1 140 434 0 433 0 10 38 c21 80 101
401 101 406 0 3 -200 7 -444 8 l-445 3 37 73 c74 146 184 253 316 305 35 15
75 29 88 31 13 3 34 8 48 12 14 3 77 8 141 9 176 5 342 -38 488 -126 102 -61
101 -60 177 -121 l71 -57 12 54 c7 30 12 56 11 57 -1 2 3 16 9 31 6 15 13 40
16 55 3 15 43 178 90 362 75 298 83 336 69 347 -9 6 -60 30 -113 53 -53 23
-105 45 -116 50 -75 34 -322 102 -420 116 -27 3 -59 9 -70 12 -22 5 -442 12
-447 7z"/>
<path d="M9473 6542 c-611 -175 -1114 -320 -1118 -324 -4 -4 4 -55 18 -115 97
-416 104 -872 22 -1288 -84 -422 -271 -845 -525 -1191 l-67 -90 925 -722 c750
-585 928 -720 939 -710 22 18 200 269 279 393 383 598 649 1281 768 1970 58
334 78 584 77 950 0 446 -41 808 -137 1215 -45 192 -55 230 -63 229 -3 0 -506
-143 -1118 -317z m924 -187 c160 -808 113 -1637 -142 -2470 -118 -389 -351
-882 -588 -1248 -62 -96 -71 -106 -86 -94 -9 8 -313 245 -676 527 -363 282
-664 516 -668 520 -4 4 18 47 49 96 237 376 406 880 454 1357 16 154 7 734
-13 862 -8 50 -12 92 -10 95 7 8 1627 468 1643 466 11 -1 21 -32 37 -111z"/>
</g>
</svg>
